<svg xmlns="http://www.w3.org/2000/svg" width="150" height="50"><path fill="#333" d="M53.73 29.66L53.68 29.61L53.70 29.62Q53.80 33.99 53.07 38.14L53.07 38.14L53.07 38.13Q55.18 37.43 58.27 37.31L58.36 37.40L58.29 37.34Q59.69 37.60 60.76 36.59L60.66 36.49L60.72 36.55Q61.85 35.61 61.85 34.27L61.76 34.19L61.76 34.19Q61.77 33.89 61.73 33.62L61.83 33.72L61.70 33.59Q61.65 30.76 59.40 29.92L59.32 29.84L59.28 29.80Q58.64 29.62 57.96 29.70L58.00 29.74L57.91 29.65Q56.77 29.50 55.75 29.54L55.75 29.55L55.81 29.60Q54.77 29.67 53.74 29.67ZM52.54 19.25L52.41 19.12L52.51 19.22Q53.29 22.44 53.55 26.81L53.60 26.86L53.63 26.89Q55.07 27.00 57.74 27.04L57.74 27.05L57.77 27.07Q60.62 27.03 60.96 23.49L61.05 23.58L60.95 23.48Q61.25 21.65 59.84 20.81L59.73 20.69L59.78 20.74Q58.95 20.30 54.53 19.65L54.47 19.59L54.54 19.65Q53.47 19.50 52.56 19.27ZM48.76 42.01L48.85 42.09L48.85 42.09Q51.42 35.53 51.15 28.14L50.98 27.97L50.98 27.97Q50.71 20.70 47.78 14.23L47.80 14.25L47.77 14.22Q51.60 16.79 57.82 17.04L57.87 17.08L57.86 17.07Q64.03 17.27 64.37 20.16L64.50 20.29L64.46 20.24Q64.83 23.06 63.42 25.72L63.44 25.74L63.37 25.67Q62.68 27.23 61.08 27.91L60.90 27.72L61.06 27.88Q64.68 28.54 64.91 33.91L64.87 33.87L64.84 33.84Q64.86 34.89 64.79 36.30L64.93 36.44L64.89 36.40Q64.82 37.70 63.89 38.64L63.84 38.59L63.97 38.72Q62.91 39.52 61.57 39.67L61.62 39.72L61.61 39.71Q60.19 39.84 59.12 39.84L59.09 39.82L59.20 39.92Q53.46 39.89 48.93 42.17ZM61.71 42.47L61.68 42.44L61.58 42.34Q62.58 42.46 64.44 42.58L64.49 42.63L64.48 42.62Q65.91 42.68 67.02 41.80L66.91 41.69L66.92 41.71Q67.86 40.93 67.74 39.37L67.70 39.33L67.66 39.29Q67.51 38.26 66.79 34.80L66.89 34.89L66.83 34.83Q66.12 31.58 64.25 30.09L64.30 30.14L63.88 29.30L63.78 29.20Q65.56 27.89 66.13 24.12L66.14 24.14L66.16 24.16Q66.33 23.03 66.25 21.62L66.12 21.49L66.30 21.67Q66.13 20.25 65.03 19.41L65.03 19.40L65.02 19.40Q64.71 19.20 64.60 19.16L64.57 19.14L64.60 19.17Q64.30 18.61 63.47 17.81L63.64 17.98L63.57 17.92Q62.09 16.88 57.86 16.69L57.71 16.55L57.72 16.55Q51.15 16.34 47.15 13.45L47.22 13.52L47.16 13.46Q50.46 20.48 50.76 28.02L50.65 27.91L50.69 27.95Q51.13 35.89 48.31 42.82L48.35 42.86L50.30 41.80L50.33 41.83Q49.91 42.93 49.41 44.07L49.52 44.18L49.40 44.06Q53.76 42.25 58.79 42.25L58.85 42.32L58.78 42.24Q60.11 42.16 61.55 42.31ZM59.42 31.76L59.43 31.78L59.52 31.87Q60.29 31.84 61.21 32.30L61.06 32.15L61.17 32.26Q61.16 32.48 61.31 33.55L61.46 33.69L61.44 33.68Q61.62 35.03 60.69 36.08L60.65 36.04L60.75 36.15Q59.77 37.14 58.36 37.02L58.37 37.04L56.76 37.02L56.82 37.08Q56.16 37.23 55.44 37.34L55.39 37.30L55.41 37.32Q55.72 35.49 55.80 32.03L55.76 31.99L55.70 31.93Q56.33 31.84 57.58 31.80L57.73 31.94L57.69 31.91Q58.95 31.87 59.56 31.91ZM58.51 22.29L58.48 22.26L58.77 22.18L58.80 22.20Q59.10 22.27 59.29 22.31L59.18 22.20L59.75 22.39L59.98 22.43L60.68 22.60L60.55 22.47Q60.64 22.71 60.64 23.02L60.61 22.98L60.62 23.52L60.78 23.69Q60.64 24.81 59.77 25.74L59.80 25.78L59.90 25.88Q58.94 26.72 57.73 26.72L57.67 26.67L57.78 26.78Q56.69 26.71 56.69 26.71L56.70 26.73L56.65 26.68Q55.34 26.66 55.68 26.66L55.69 26.66L55.80 26.77Q55.64 25.13 55.33 22.08L55.40 22.15L55.37 22.13Q56.88 22.18 58.40 22.18Z"/><path fill="#333" d="M82.63 40.37L82.63 40.38L82.57 40.32Q81.19 40.43 79.63 40.01L79.67 40.05L79.64 40.01Q78.48 39.16 78.33 37.53L78.18 37.37L78.25 37.44Q78.18 37.22 78.37 34.60L78.33 34.55L78.32 34.55Q79.43 34.44 81.45 34.06L81.48 34.09L81.34 34.90L81.28 34.84Q81.04 36.62 82.45 37.19L82.39 37.13L82.34 37.08Q83.23 37.51 85.32 37.51L85.36 37.55L85.21 37.40Q86.93 37.37 87.12 37.29L87.15 37.32L87.09 37.27Q88.10 37.20 88.82 36.71L88.82 36.71L88.72 36.61Q90.13 35.66 89.94 33.57L89.95 33.58L90.02 33.64Q89.65 31.03 87.92 29.47L87.93 29.48L88.02 29.57Q86.26 27.98 83.78 27.98L83.91 28.11L83.91 27.87L83.87 27.83Q84.27 27.82 85.15 27.75L85.02 27.61L85.04 27.63Q87.01 27.59 88.38 26.36L88.44 26.41L88.36 26.33Q89.63 24.99 89.78 23.12L89.96 23.31L89.78 23.13Q89.97 22.89 89.97 22.55L89.88 22.46L89.98 22.57Q89.94 21.00 88.57 20.09L88.63 20.15L88.50 20.02Q87.41 19.35 85.81 19.46L85.74 19.39L85.68 19.33Q84.38 19.17 83.16 19.59L83.24 19.66L83.20 19.63Q81.89 20.29 81.58 21.44L81.43 21.29L81.41 21.26Q81.29 22.09 81.36 22.85L81.37 22.86L81.30 22.80Q80.27 22.56 78.22 21.84L78.33 21.96L78.23 21.85Q78.13 20.31 78.17 19.47L78.19 19.49L78.12 19.43Q78.26 17.92 79.32 17.23L79.24 17.15L79.20 17.12Q80.62 16.52 82.22 16.52L82.20 16.49L82.19 16.49Q85.40 16.50 88.56 16.77L88.52 16.72L88.58 16.79Q93.65 17.21 93.34 20.98L93.34 20.97L93.30 20.93Q93.38 22.58 92.89 24.14L92.72 23.97L92.70 23.95Q91.88 27.12 89.51 28.04L89.46 27.99L89.54 28.07Q92.05 28.48 92.66 31.83L92.74 31.91L92.70 31.87Q92.94 33.03 93.02 35.05L93.05 35.08L92.97 34.99Q93.16 39.49 88.56 39.94L88.62 40.01L88.55 39.94Q87.90 40.09 82.61 40.35ZM87.91 42.68L87.80 42.58L87.83 42.61Q88.42 42.63 91.28 42.70L91.32 42.75L91.35 42.78Q93.07 42.82 94.71 42.17L94.73 42.20L94.65 42.12Q95.91 41.24 95.71 39.49L95.62 39.40L95.69 39.47Q95.54 38.10 95.24 36.35L95.27 36.38L95.29 36.40Q94.46 31.80 92.52 30.17L92.56 30.21L92.39 29.85L92.44 29.86L92.29 29.71Q94.00 28.22 94.76 23.84L94.79 23.87L94.90 23.98Q94.91 23.49 95.02 22.54L95.07 22.59L95.04 22.56Q95.15 21.84 95.08 21.15L95.04 21.11L95.05 21.12Q94.95 19.50 93.65 18.81L93.51 18.67L93.43 18.67L93.53 18.77Q93.25 17.80 92.10 17.26L92.04 17.20L92.10 17.26Q90.55 16.55 85.41 16.24L85.35 16.18L85.28 16.11Q83.72 16.15 82.12 16.15L82.09 16.12L82.14 16.17Q80.43 16.06 78.91 16.71L79.00 16.80L79.04 16.84Q77.66 17.44 77.66 19.19L77.72 19.25L77.78 19.31Q77.84 18.95 78.10 22.30L77.98 22.17L78.01 22.20Q78.27 22.23 79.91 22.84L79.88 22.82L79.98 22.92Q80.06 23.53 80.02 24.02L79.98 23.98L79.97 23.98Q80.03 24.53 80.07 25.06L80.04 25.03L80.04 25.03Q81.78 25.37 83.80 25.48L83.77 25.46L83.73 25.41Q83.63 23.37 84.73 22.53L84.72 22.52L84.73 22.53Q85.72 22.04 87.74 21.81L87.64 21.71L87.69 21.76Q88.73 21.66 89.30 21.85L89.40 21.95L89.40 21.95Q89.44 22.07 89.48 22.18L89.42 22.12L89.40 22.29L89.48 22.83L89.63 22.97Q89.53 23.06 89.49 23.21L89.60 23.33L89.45 23.18Q89.53 25.05 88.01 26.23L87.89 26.11L87.91 26.13Q87.04 27.08 85.02 27.27L85.01 27.26L84.93 27.19Q84.23 27.35 83.35 27.35L83.33 27.34L83.29 27.30Q83.42 27.73 83.57 28.41L83.60 28.45L83.63 28.47Q85.43 28.52 86.87 29.24L86.82 29.19L86.76 29.24L85.17 29.41L85.06 29.30Q85.07 29.61 85.19 30.22L85.25 30.28L85.20 30.23Q87.37 30.20 89.09 31.53L89.13 31.58L89.10 31.55Q89.31 31.90 89.61 33.54L89.59 33.52L89.72 33.65Q89.92 36.59 86.99 37.01L86.87 36.89L86.84 36.86Q84.73 37.11 84.16 37.07L84.20 37.11L84.21 37.13Q83.77 37.02 83.23 36.94L83.15 36.87L83.34 36.60L83.34 36.03L83.35 35.62L83.36 35.28L83.44 35.36Q82.56 35.51 81.76 35.70L81.73 35.67L81.73 35.67Q81.60 35.35 81.60 35.16L81.57 35.13L81.57 35.13Q81.68 35.01 81.68 34.78L81.78 34.88L81.68 34.79Q81.70 34.35 81.85 33.62L81.80 33.57L81.84 33.61Q79.95 33.81 78.08 34.15L78.11 34.18L78.11 34.18Q78.08 34.64 77.96 35.77L78.12 35.92L78.09 35.89Q77.87 36.91 77.87 37.52L77.85 37.50L77.99 37.64Q78.01 39.64 79.38 40.40L79.45 40.47L79.27 40.29Q80.85 42.67 85.57 42.48L85.50 42.41L85.64 42.55Q86.31 42.46 87.83 42.61Z"/><path d="M2 44 C76 32,59 49,140 23" stroke="#888" fill="none"/><path fill="#111" d="M25.90 27.56L26.03 27.69L26.03 27.69Q23.66 27.57 22.38 29.07L22.56 29.25L22.41 29.10Q21.26 30.72 21.14 33.01L21.07 32.94L21.07 32.93Q20.92 35.57 21.76 36.52L21.86 36.62L21.90 36.66Q22.96 37.87 25.28 37.71L25.18 37.62L25.30 37.73Q29.91 37.40 30.29 34.39L30.22 34.32L30.29 34.39Q30.31 33.50 30.31 32.70L30.40 32.79L30.44 32.82Q30.21 30.62 29.07 29.09L29.12 29.14L29.26 29.28Q27.91 27.59 25.97 27.63ZM30.81 37.72L30.76 37.67L30.79 37.70Q29.32 39.85 24.94 40.08L24.92 40.06L24.93 40.07Q20.77 40.24 19.13 39.14L19.21 39.22L19.17 39.18Q18.15 38.20 18.00 36.49L17.98 36.47L17.97 36.45Q17.99 35.42 18.18 33.55L18.26 33.63L18.18 33.55Q18.61 29.18 19.83 27.35L19.88 27.40L19.87 27.40Q21.45 24.87 25.30 24.90L25.40 25.01L25.29 24.90Q27.86 24.99 30.14 27.31L30.11 27.28L30.15 27.32Q30.34 21.57 31.94 15.06L31.96 15.08L32.00 15.12Q33.80 14.60 35.66 13.76L35.72 13.82L35.58 13.67Q33.12 20.43 32.85 27.43L32.70 27.28L32.72 27.30Q32.54 34.59 34.67 41.17L34.63 41.12L34.52 41.02Q33.01 40.53 31.29 40.15L31.38 40.24L31.31 40.17Q31.01 38.88 30.86 37.78ZM33.93 43.29L33.79 43.14L33.81 43.16Q35.85 43.67 38.40 45.20L38.41 45.21L38.52 45.32Q34.82 38.27 34.67 29.97L34.69 29.99L34.60 29.90Q34.51 21.74 37.59 14.35L37.54 14.31L37.62 14.39Q36.84 14.75 35.40 15.40L35.42 15.42L35.41 15.41Q35.70 14.22 36.31 13.00L36.41 13.10L36.32 13.01Q34.03 14.18 31.59 14.75L31.49 14.65L31.60 14.76Q30.13 20.52 29.86 26.61L29.84 26.59L29.86 26.61Q28.00 24.82 25.48 24.71L25.40 24.63L25.42 24.64Q21.88 24.42 19.97 26.51L20.16 26.70L20.07 26.60Q18.37 28.97 17.95 33.66L17.86 33.57L17.95 33.66Q17.64 36.36 17.64 36.78L17.58 36.72L17.64 36.78Q17.77 38.59 18.92 39.65L18.93 39.66L18.84 39.57Q19.03 39.76 19.22 39.84L19.29 39.91L19.69 40.50L19.80 40.61Q20.74 41.93 23.71 42.20L23.80 42.29L23.63 42.12Q25.88 42.32 27.25 42.39L27.20 42.34L27.22 42.36Q31.56 42.70 33.27 41.37L33.14 41.24L33.27 41.37Q33.33 41.99 33.78 43.14ZM27.59 29.93L27.54 29.89L27.53 29.88Q28.61 29.93 29.44 30.42L29.51 30.49L29.50 30.47Q29.87 31.65 29.94 32.67L30.05 32.77L30.08 32.81Q30.30 36.95 25.28 37.30L25.22 37.23L25.35 37.36Q24.36 37.29 23.26 37.02L23.24 37.01L23.30 37.07Q23.05 36.44 22.98 35.91L23.04 35.97L22.90 35.83Q22.89 35.22 22.93 34.61L23.07 34.74L23.00 34.68Q23.24 31.19 25.87 30.20L25.90 30.23L25.87 30.20Q26.88 29.88 27.57 29.92Z"/><path fill="#222" d="M115.55 19.64L115.53 19.61L113.90 19.66L113.98 19.74Q111.64 19.76 111.41 21.78L111.44 21.81L111.58 21.95Q111.34 22.51 111.38 23.50L111.56 23.68L111.38 23.50Q111.47 25.49 112.72 26.82L112.82 26.92L112.83 26.93Q113.94 28.11 115.84 27.96L115.95 28.07L115.91 28.03Q118.06 27.97 118.82 27.05L118.73 26.97L118.78 27.02Q119.87 26.13 120.14 23.88L120.06 23.81L120.12 23.87Q120.30 21.53 119.04 20.69L119.05 20.70L119.16 20.81Q118.16 19.89 115.50 19.59ZM121.50 28.79L121.62 28.91L120.38 31.24L120.35 31.22Q117.50 35.87 113.73 39.94L113.82 40.03L113.91 40.11Q112.21 40.20 109.50 41.00L109.59 41.09L109.50 40.99Q114.83 34.72 117.99 29.92L118.03 29.96L117.94 29.87Q116.86 30.46 115.22 30.54L115.32 30.64L115.31 30.63Q112.34 30.82 110.81 28.84L110.84 28.86L110.80 28.82Q109.50 27.14 108.39 22.57L108.52 22.69L108.38 22.55Q108.40 22.12 108.25 21.19L108.31 21.25L108.29 21.23Q108.06 20.22 108.06 19.76L108.16 19.86L108.21 19.91Q108.12 18.04 109.19 17.43L109.18 17.42L109.14 17.38Q110.43 16.68 112.29 16.68L112.38 16.78L112.40 16.80Q115.59 16.78 115.59 16.78L115.58 16.77L115.53 16.72Q117.60 16.66 118.86 16.85L119.01 17.00L118.89 16.88Q121.13 17.26 122.04 17.76L122.01 17.73L122.06 17.78Q123.36 18.46 123.55 20.22L123.55 20.21L123.47 20.14Q123.60 20.50 123.41 23.16L123.40 23.15L123.28 23.03Q122.90 25.16 122.67 26.00L122.79 26.12L122.66 25.99Q122.45 27.57 121.69 28.98ZM123.46 31.24L123.52 31.30L123.48 31.26Q124.47 29.05 125.00 24.75L125.12 24.87L124.98 24.72Q125.22 22.50 125.18 21.62L125.16 21.59L125.19 21.62Q125.23 19.84 124.05 18.92L124.05 18.92L123.83 18.89L123.79 18.85Q123.54 18.11 122.62 17.46L122.60 17.44L122.59 17.43Q120.36 16.49 115.56 16.34L115.57 16.34L115.54 16.32Q114.43 16.15 111.99 16.15L112.04 16.20L112.06 16.22Q110.38 16.29 108.89 16.98L108.88 16.97L108.91 16.99Q107.79 17.82 107.87 19.64L107.75 19.52L107.84 19.62Q108.01 20.51 108.20 22.52L108.18 22.51L108.24 22.57Q108.80 25.14 109.06 25.98L109.02 25.94L109.12 26.03Q109.59 27.80 110.54 29.10L110.48 29.04L110.46 29.02Q110.80 29.43 111.18 29.81L111.13 29.76L111.17 29.80Q111.56 30.38 112.20 31.29L112.09 31.18L112.20 31.29Q113.70 32.67 115.64 32.86L115.51 32.73L115.55 32.77Q113.64 35.43 112.08 37.33L112.11 37.37L108.54 41.79L108.43 41.68Q110.67 40.92 112.31 40.57L112.39 40.66L112.35 40.62Q111.56 41.46 110.00 43.17L110.01 43.19L110.03 43.20Q113.04 42.21 116.16 42.17L116.13 42.15L116.20 42.22Q118.57 39.68 122.91 32.45L122.93 32.46L122.81 32.41L122.94 32.55Q123.08 31.70 123.42 31.20ZM117.41 21.96L117.51 22.05L117.55 22.09Q118.01 21.83 118.47 21.95L118.46 21.94L118.63 22.11Q119.28 22.23 119.66 22.34L119.54 22.21L119.57 22.25Q119.76 22.70 119.84 23.12L119.86 23.15L119.77 23.06Q119.86 23.49 119.75 23.87L119.70 23.82L119.78 23.90Q119.75 25.63 118.57 26.73L118.53 26.69L118.53 26.69Q117.49 27.63 115.85 27.59L115.84 27.58L116.01 27.75Q115.46 27.62 113.94 27.31L113.92 27.30L114.02 27.40Q113.74 26.47 113.74 25.74L113.75 25.75L113.75 25.76Q113.70 25.51 113.70 25.28L113.66 25.25L113.60 25.19Q113.67 23.05 115.96 22.25L115.97 22.27L115.90 22.20Q116.57 21.95 117.41 21.95Z"/></svg>