<svg xmlns="http://www.w3.org/2000/svg" width="150" height="50"><path fill="#333" d="M108.77 15.79L108.81 15.83L108.80 15.82Q110.69 20.68 111.26 25.86L111.31 25.90L111.36 25.96Q115.00 21.76 120.90 16.92L120.94 16.96L120.97 16.99Q124.16 16.68 126.79 15.88L126.66 15.75L120.20 21.47L120.18 21.45Q116.77 24.40 113.92 27.25L113.81 27.15L114.00 27.34Q121.96 36.48 127.02 41.20L126.92 41.09L126.99 41.16Q123.84 40.19 121.52 40.03L121.51 40.02L121.48 39.99Q115.79 34.68 111.49 28.86L111.37 28.74L111.35 28.72Q111.63 35.51 109.76 40.84L109.75 40.83L109.74 40.82Q109.55 40.89 109.05 41.08L108.90 40.93L109.01 41.23L108.99 41.21Q108.78 41.23 106.23 42.14L106.23 42.14L106.16 42.08Q109.05 35.45 108.71 27.99L108.76 28.04L108.72 28.00Q108.53 20.81 104.99 14.30L104.86 14.16L105.38 14.41L105.78 14.70L105.99 14.88L105.82 14.70Q106.71 15.25 108.91 15.93ZM109.06 15.51L109.10 15.54L109.01 15.46Q106.88 15.04 104.25 13.51L104.11 13.37L104.13 13.39Q108.47 20.75 108.47 29.69L108.44 29.66L108.51 29.73Q108.59 36.81 105.62 42.86L105.62 42.86L107.46 41.81L107.52 41.88Q107.18 42.94 106.50 44.24L106.44 44.18L106.39 44.13Q108.71 43.41 110.66 42.99L110.72 43.05L110.66 42.76L110.77 42.87Q111.08 42.88 111.65 42.72L111.62 42.70L111.59 42.67Q113.22 36.72 113.33 31.92L113.33 31.92L113.38 31.97Q115.33 34.34 117.16 36.21L117.31 36.36L117.33 36.38Q118.51 37.48 121.51 40.45L121.36 40.30L121.45 40.38L121.54 40.48Q122.41 41.15 124.27 42.75L124.26 42.73L124.29 42.77Q128.18 43.50 131.64 45.21L131.65 45.22L131.77 45.34Q122.42 36.71 116.18 29.29L116.15 29.26L116.09 29.20Q120.51 24.94 129.26 16.33L129.24 16.31L129.24 16.31Q126.69 17.45 124.67 17.83L124.80 17.96L124.85 18.02Q126.06 17.02 128.39 15.00L128.26 14.88L128.33 14.94Q124.20 16.33 120.85 16.52L120.81 16.48L120.79 16.46Q117.87 18.68 113.00 23.36L112.95 23.31L113.13 23.50Q112.59 20.75 112.02 18.20L111.99 18.17L111.99 18.17Q110.99 18.20 110.00 17.85L109.95 17.80L109.87 17.73Q109.70 17.02 109.13 15.57Z"/><path fill="#333" d="M22.80 32.99L22.84 33.03L22.85 33.04Q25.82 32.55 29.02 32.66L29.00 32.64L28.97 32.62Q28.96 30.09 28.96 27.69L29.05 27.78L28.97 27.70Q28.97 25.23 29.16 22.68L29.10 22.62L29.10 22.62Q27.93 24.38 22.72 32.91ZM32.58 40.21L32.66 40.30L32.65 40.29Q31.02 40.03 29.23 39.95L29.26 39.99L29.16 39.89Q28.99 37.54 28.88 35.07L28.87 35.06L28.83 35.02Q23.64 34.97 18.92 36.38L18.94 36.40L18.92 36.38Q18.98 35.83 19.17 34.84L19.14 34.81L19.13 34.80Q21.04 31.76 24.62 25.48L24.46 25.32L24.55 25.41Q27.45 20.55 30.88 16.67L30.88 16.66L30.83 16.61Q31.81 16.53 33.48 16.26L33.30 16.08L33.37 16.15Q31.55 22.67 31.55 29.71L31.54 29.70L31.53 29.69Q31.41 31.05 31.49 32.54L31.48 32.53L32.89 32.76L32.77 32.64Q33.43 32.73 34.04 32.85L34.08 32.89L34.16 32.96Q34.11 33.79 34.38 35.73L34.54 35.90L34.43 35.79Q33.23 35.54 31.75 35.35L31.80 35.41L31.84 35.45Q32.06 37.46 32.75 40.39ZM34.36 32.52L34.41 32.57L34.42 32.58Q34.07 32.34 33.88 32.34L33.89 32.35L33.52 32.36L33.65 32.49Q33.54 31.01 33.54 29.60L33.54 29.61L33.48 29.54Q33.56 23.23 35.61 17.21L35.51 17.11L35.58 17.18Q34.81 17.44 33.36 17.82L33.40 17.85L33.28 17.74Q33.61 17.08 34.07 15.67L34.06 15.66L33.98 15.58Q32.80 16.07 30.74 16.30L30.64 16.20L30.70 16.26Q26.73 20.55 21.52 29.92L21.44 29.84L23.51 26.17L23.57 26.22Q23.20 27.30 22.93 27.87L22.95 27.88L18.40 36.81L18.50 36.92Q19.15 36.76 20.29 36.38L20.27 36.36L20.01 36.48L20.10 36.57Q19.93 37.20 19.62 38.46L19.60 38.43L19.67 38.50Q23.75 37.14 28.58 37.33L28.72 37.46L28.66 37.40Q28.67 38.33 28.86 40.31L28.78 40.23L28.82 40.27Q29.91 40.29 30.97 40.40L30.97 40.40L31.07 40.50Q31.10 41.06 31.36 42.43L31.45 42.51L31.33 42.40Q33.39 42.78 36.40 43.70L36.37 43.67L36.40 43.69Q35.41 41.56 34.49 38.29L34.48 38.28L35.77 38.58L35.96 38.77Q36.56 38.91 37.25 39.25L37.14 39.14L37.15 39.15Q36.51 36.80 36.36 35.13L36.29 35.06L36.28 35.05Q35.64 34.82 34.49 34.60L34.64 34.74L34.55 34.65Q34.41 33.44 34.41 32.57ZM26.28 32.28L26.43 32.43L26.32 32.32Q27.09 31.04 28.65 28.49L28.58 28.41L28.63 28.47Q28.67 29.46 28.64 30.41L28.71 30.49L28.71 30.49Q28.66 31.43 28.70 32.38L28.72 32.40L28.58 32.26Q28.02 32.24 27.45 32.24L27.55 32.34L27.62 32.40Q26.92 32.31 26.31 32.31Z"/><path d="M6 27 C71 42,69 1,149 48" stroke="#444" fill="none"/><path fill="#333" d="M55.96 29.66L56.07 29.77L56.06 29.76Q51.90 29.60 51.33 32.64L51.29 32.60L51.25 32.56Q51.05 33.62 51.24 34.49L51.17 34.43L51.31 34.56Q51.36 35.38 51.82 36.78L51.71 36.68L51.68 36.64Q52.92 39.98 56.23 39.83L56.11 39.70L56.07 39.67Q58.11 39.77 59.44 38.20L59.57 38.33L59.57 38.34Q60.62 36.68 60.62 34.62L60.62 34.62L60.78 34.78Q60.92 34.20 60.77 33.14L60.62 32.99L60.77 33.13Q60.65 32.18 60.23 31.49L60.24 31.51L60.13 31.39Q58.58 29.81 55.99 29.69ZM60.92 48.25L60.98 48.31L60.99 48.32Q59.10 48.83 51.03 49.21L50.92 49.10L51.06 49.24Q49.30 49.23 47.66 48.39L47.63 48.35L47.56 48.29Q48.49 47.43 50.31 45.64L50.24 45.57L50.28 45.60Q52.68 46.63 54.77 46.44L54.87 46.54L54.79 46.45Q57.72 46.23 58.55 45.96L58.63 46.04L58.45 45.86Q60.82 45.29 60.82 43.50L60.77 43.45L60.82 43.50Q60.75 43.20 60.67 42.98L60.73 43.03L60.53 41.35L60.72 41.54Q60.56 40.62 60.56 39.82L60.58 39.84L60.62 39.87Q59.16 42.04 55.78 42.04L55.75 42.01L55.84 42.11Q52.02 42.17 50.39 39.96L50.41 39.98L50.25 39.83Q49.17 38.32 48.37 33.91L48.48 34.02L48.46 34.00Q48.04 32.36 48.04 30.95L48.14 31.05L48.14 31.05Q48.02 29.15 48.94 28.16L48.95 28.17L48.99 28.21Q50.64 26.78 55.28 26.78L55.32 26.81L57.07 27.00L57.13 27.06Q60.32 27.39 61.65 29.34L61.60 29.28L61.62 29.30Q61.73 28.38 62.14 26.75L62.18 26.78L62.19 26.79Q64.12 26.51 65.87 25.79L65.75 25.67L65.84 25.75Q63.05 31.73 63.05 38.96L63.09 39.00L63.18 39.08Q63.24 41.81 63.62 44.44L63.53 44.35L63.56 44.38Q63.75 45.06 63.67 45.75L63.65 45.72L63.68 45.76Q63.37 47.00 62.15 47.76L62.13 47.75L62.15 47.76Q61.64 48.01 60.80 48.13ZM63.95 51.24L63.86 51.15L63.81 51.10Q65.28 51.16 66.04 50.21L66.11 50.28L66.05 50.22Q66.52 49.40 66.41 48.67L66.42 48.69L66.30 48.56Q66.17 47.90 65.98 47.14L66.09 47.25L66.00 47.16Q64.74 41.91 65.08 36.65L65.22 36.79L65.26 36.83Q65.48 31.26 67.61 26.42L67.57 26.39L65.56 27.42L65.61 27.47Q65.70 26.72 65.93 26.15L65.93 26.16L66.46 25.05L66.56 25.14Q64.22 26.12 62.01 26.54L61.84 26.36L62.00 26.52Q61.68 27.38 61.52 28.41L61.40 28.29L61.49 28.37Q59.27 26.35 55.24 26.35L55.26 26.37L53.47 26.34L53.48 26.34Q50.33 26.42 48.65 27.83L48.62 27.80L48.73 27.91Q47.74 28.82 47.77 30.72L47.85 30.80L47.70 30.65Q47.75 33.14 48.78 37.40L48.85 37.47L48.78 37.40Q49.24 39.31 50.46 40.72L50.58 40.84L50.72 40.98L50.81 41.07L50.94 41.20Q52.10 43.54 54.69 44.07L54.68 44.06L54.58 43.96Q56.03 44.31 57.48 44.35L57.42 44.29L57.55 44.42Q59.17 44.33 60.24 43.95L60.28 43.99L60.29 44.00Q59.69 45.57 57.02 45.91L56.92 45.81L57.03 45.92Q56.01 46.12 55.33 46.12L55.34 46.13L54.86 46.04L54.93 46.10Q52.09 46.08 50.41 45.13L50.29 45.01L48.61 46.75L48.67 46.81Q47.77 47.59 46.93 48.54L47.00 48.60L47.03 48.63Q47.95 49.09 48.94 49.29L48.98 49.33L48.12 50.22L48.19 50.29Q50.82 51.28 56.45 51.28L56.35 51.17L56.63 51.23L56.72 51.32Q60.20 51.18 63.78 51.07ZM57.98 32.10L57.89 32.01L57.99 32.11Q59.13 31.88 60.04 32.30L60.10 32.35L60.05 32.30Q60.42 32.98 60.50 33.66L60.38 33.55L60.45 33.61Q60.51 33.95 60.47 34.86L60.30 34.68L60.31 34.70Q60.28 36.64 59.17 37.94L59.18 37.94L59.30 38.06Q58.08 39.43 56.18 39.39L56.23 39.45L56.05 39.27Q54.72 39.31 53.88 38.89L53.81 38.81L53.88 38.88Q53.54 37.78 53.50 36.75L53.52 36.77L53.34 36.59Q53.38 32.41 57.99 32.11Z"/><path fill="#222" d="M91.72 41.02L91.62 40.92L91.66 40.96Q90.31 39.23 89.02 36.14L89.12 36.24L87.02 31.14L86.96 31.08Q85.26 34.98 84.65 36.27L84.74 36.35L84.78 36.40Q83.36 39.36 81.76 41.26L81.62 41.12L81.70 41.20Q81.25 41.13 80.49 41.24L80.51 41.26L80.47 41.23Q80.55 33.88 74.73 27.94L74.75 27.97L74.81 28.02Q73.03 26.17 71.01 24.69L70.89 24.56L70.93 24.60Q72.84 25.22 74.71 25.52L74.74 25.56L74.61 25.43Q80.70 30.41 82.14 36.65L82.08 36.59L82.27 36.78Q83.11 34.88 84.29 31.68L84.34 31.73L84.20 31.60Q85.53 27.82 86.10 26.53L86.15 26.58L87.55 26.57L87.53 26.55Q88.36 28.21 89.54 31.49L89.69 31.64L89.69 31.64Q90.84 35.11 91.49 36.52L91.48 36.52L91.63 36.67Q93.38 30.30 98.86 25.73L98.94 25.81L98.95 25.82Q100.17 25.75 102.92 25.18L102.78 25.05L102.84 25.10Q94.18 31.10 93.00 41.07L93.09 41.16L92.37 40.98L92.37 40.98Q91.98 40.89 91.64 40.93ZM94.60 43.36L96.65 43.55L96.67 43.57Q96.40 42.08 96.40 40.56L96.28 40.43L96.32 40.48Q96.37 37.29 97.78 34.05L97.74 34.01L97.73 34.00Q99.69 29.46 103.80 26.37L103.92 26.49L103.93 26.50Q102.65 26.70 100.78 27.05L100.89 27.15L100.83 27.09Q102.79 25.43 104.08 24.52L104.01 24.45L101.64 25.05L101.61 25.01Q100.30 25.15 98.96 25.30L99.09 25.43L98.97 25.31Q93.76 29.50 91.82 34.53L91.98 34.69L91.91 34.62Q91.16 32.35 89.79 28.08L89.80 28.09L89.92 28.21Q89.50 28.14 89.24 28.14L89.38 28.29L88.82 28.26L88.67 28.10Q88.60 27.85 87.80 26.10L87.83 26.12L85.82 26.17L85.87 26.22Q84.76 28.88 82.67 34.51L82.73 34.58L82.71 34.55Q81.34 30.83 78.26 27.55L78.35 27.64L78.36 27.65Q78.14 27.70 77.83 27.66L77.80 27.63L77.17 27.46L77.23 27.52Q76.42 26.75 74.63 25.15L74.48 25.00L74.59 25.10Q71.37 24.40 69.70 23.90L69.81 24.02L69.70 23.91Q80.40 31.34 80.02 41.65L79.99 41.62L80.14 41.77Q80.22 41.66 80.58 41.62L80.73 41.77L80.58 41.62Q81.05 41.69 81.24 41.69L81.14 41.59L81.15 41.60Q81.13 41.43 81.32 43.53L81.46 43.66L83.29 43.40L83.33 43.44Q85.99 40.69 88.24 34.94L88.17 34.88L88.24 34.95Q89.68 38.74 91.54 41.41L91.51 41.38L91.52 41.39Q91.75 41.28 92.02 41.30L92.16 41.44L92.07 41.35Q92.36 41.39 92.63 41.39L92.55 41.31L94.74 43.50Z"/></svg>